<svg xmlns="http://www.w3.org/2000/svg" viewBox="0 0 512 512" role="img" aria-label="TeleDoc icon">
  <defs>
    <linearGradient id="g" x1="0" y1="0" x2="1" y2="1">
      <stop offset="0%" stop-color="#0f5f4d" />
      <stop offset="100%" stop-color="#0d7b89" />
    </linearGradient>
  </defs>
  <rect width="512" height="512" rx="96" fill="url(#g)" />
  <circle cx="256" cy="256" r="138" fill="#ffffff" opacity="0.94" />
  <path d="M256 168c8 0 14 6 14 14v60h60c8 0 14 6 14 14s-6 14-14 14h-60v60c0 8-6 14-14 14s-14-6-14-14v-60h-60c-8 0-14-6-14-14s6-14 14-14h60v-60c0-8 6-14 14-14z" fill="#0f5f4d" />
</svg>